<svg width="213" height="305" viewBox="0 0 213 305" fill="none" xmlns="http://www.w3.org/2000/svg"><g clip-path="url(#a)"><path d="M17.6 97c2.4-.3 3.7 1.7 5.7 2.3 2.8.8 5.2 2.4 8 3.4 1.3.5 2.4 2 3.6 3 2.7 2.7 14-1 12.8-1.6-1-.7-2.2-1.2-3.5-1.4-.5 0-1 0-1.1-.7 0-.8.6-.7 1.1-.8 1.7-.4 3.6-.2 5.2.5a15 15 0 0 0 5 1.4c3.5.4 6.2-1.5 8.8-3.4l2.5-1.8c3.1-2.4 5.7-5.4 7.6-8.8 1.4-2.4 2.1-2.4 4.7-1.3 1.4.6 2.9 1.4 4.5 1.5.8 0 1.5.2 2.2.6 3.6 2.3 7 4.8 11.2 5.8.9.3 1 1.3 1.6 1.8 4 4.4 8.8 8.1 12.7 12.8 1 1.2 2.6 1.7 3.3 3.4 1.3-1 1.5-3 3.4-3.2.4 0 .2-.7.2-1-.2-.6-.6-.8-1-1.2 0-.2-.2-.3-.4-.5l.5.5c.4.3.6 1 1.3.7 1.1.8 2 2 3.4 2.4.4.2 1 .5 1.3 0 .2-.4-.1-.8-.5-1-1-.7-1.1-2-1.8-3 3.1 2.1 4.8 5.8 8.4 8.2-.8-2.6-2.3-4.2-3.5-5.9l-4.6-5.7c-.3-.5-.9-1.1-.1-1.5.6-.4.8.5 1.1.9 3.6 5 7.6 9.7 10.4 15.2l.8 1c0-6.1-10.3-18.3-16.5-22.7l1.4 2.5c-2-1.5-4.9-2.2-5-5.4 0-.7-.7-.8-1.1-1a9 9 0 0 1-3.7-3.9c-.3-.8-1-1.4-1.9-1.8-5.9-2.8-11.2-6.8-17.3-9.3l-5.1-2.1c-5-2-10.2-3.1-14.9-5.6-.6-.3-1.1-.5-1.7-.5-.7 0-1 .7-.6 1 2.1 1.4.7 3.2.4 4.7-1.3 6.4-5 11.1-10.6 14.3-2.3 1.3-5 1-7.5 1.7-3.9 1.1-6.8-1.2-10.1-2a26 26 0 0 1-9.8-4.7c-5.3-3.8-9-8.8-11.7-14.7-.3-.7-.4-1.5-.2-2.2 1-.4.8 1 1.6 1l-1.5-6a38.9 38.9 0 0 1 2.2-25.7c1.5-3.3 3-6.4 5.5-9 .8-1 .8-.8 1.4.4 4-3.9 8.2-7.3 13.5-8.8 3-.8 6-1.5 9-1.9 4.1-.5 7.7 1.7 11.5 2 3.7.4 4.5 3.9 7 5.3 1 .5.6 1.9 1.3 2.9 2 3 3.3 6.3 3 10-.2 1-.5 1.8-1.4 2.3l-3.4 1.4c-.4.1-.8 0-1-.4-.2-.5.1-.7.6-.9l.7-.2c3.6-1.4 4.4-5 1.9-8-1-1.1-2.2-.4-3.3-.5-1.4-.1-2.5.2-4 1-2.6 1.5-5.5 11.7.5 15.7 18.6 12.2 18.1-15.3 16.8-19-.2-.4-.6-1 0-1.2.7-.2.9.5 1 1 .2 1.3.7 2.5 1.5 3.6.3.4.6.7 1.2.5.8-.4.2-.8 0-1.2-.3-.8-.5-1.7-1-2.4-1.7-1.9-.7-4.5-1.9-6.6-.1-.3.8-1 .5-2.1-1.8-6.5-6.8-10.1-11.5-14l-.7-.6c-.4-.4-1.2-.7-1-1.4.2-.6 1-.2 1.5-.5l-.2.2.2-.1a43 43 0 0 0-18-2c2.8.6 5.5.8 8.2 1.4 4.1 1 8 2.8 11.3 5.4 3 2.3 5.4 5.2 8 7.8.5.5 1.3 1.2.7 1.8-.7.7-1.4-.2-1.8-.7A31.1 31.1 0 0 0 58.3 5.2a57.3 57.3 0 0 0-17-2.6c2.2.3 4.2-.7 6.2-.1.2-.9-.3-1-.6-1-2.1-.2-4.2.2-6.2-1-.8-.4-1.4.5-1.8 1-.8 1.3-1.9 1.5-3.2 1.2a7 7 0 0 0-5.3 1c1.8.7 3.2.3 4.6-.2A49.8 49.8 0 0 0 9 23.2c2.6-6 7.4-10 12.3-14.3-3 .5-4.7 2.6-6.5 4.3-.8.8-1.5 1.8-2.4 2.6-1.3 1.1-2.1 2.7-3 4.1-2.5 3.6-4.6 7.4-6.7 11.2-.9 1.6-.2 3.6-1 5.3-.3.3.2.8.7.4 1.4-1.2 1.1 0 1.2.8 0 .2-.2.4-.1.6.2 2.2-3.3 3-1.8 6 .8 1.7-.6 5.1-.7 7.5 0 .2 0-.2 0 0-2.1 3.6-.3 7.3-.1 11 0 1 1 2 .1 3.3l.1.7c2 2.3 1 5.5 2.5 8 1.5 2.3 2.5 5 3.3 7.7 1.2 3.7 4 6 6.4 8.8 1.5 1.9 3.7 3.2 4.3 5.8Z" fill="#DFD4BF"/><path d="M98.6 263.4c-2.4-.7-4.7-.8-7.1-.2-1.6.3-3 0-4-1.3-.3-.3-.4-.8 0-1.1.2-.3.7-.1.9.2 1.4 1.7 3.2 1 4.9.7 1-.2 2.1-.5 3.2-.3 3.8 1 18.8-6.7 22.8-9.5 4.8-3.6 10-6.9 13.7-11.7.8-1 1.5-2 1.8-3.2.2-.5.3-.9.8-1.2a22 22 0 0 0 6.8-8.5c2.7-4.9 5-10 6.9-15.2 1.6-5.3 4.8-10 5.3-15.7.7-7.2 2-14.3 1.8-21.6-.1-3.8-.2-7.5-1-11.3-.8-4.1-1-8.4-1.8-12.6-.1-.6.2-1.2.8-1.5.4-.2.6-.5.5-1-.2-.4-.6-.5-1-.5-1.2.2-1.4-.5-1.8-1.6-1-2.6-.7-5.4-1.5-8.1a96 96 0 0 0-5.6-16.4c-3-6.4-5.8-13-8.6-19.5-.6-1.4-1.9-2.5-1.7-4.5.1-1-2-1.8-2.8-3-2.2-3.3-4.7-6.3-7-9.5-1.3-2-2.4-4.3-3.6-6.5-.3-.5-.6-1-.3-1.9 3.6 5 6.1 10.6 10.2 15.1.6-1 .2-1.5-.4-2a4.5 4.5 0 0 1-1.2-2.6c0-.4 0-.7-.4-1-3-2-4.7-5.2-6-8.5-.8-2.3-1.8-4.5-2.8-6.7-1.9-4.4-2.9-9-3.6-13.6 0-.5 0-1 .3-1.4 2.5-2.2 1.1-5 1-7.6-.1-1.3 0-1.8 1-2.3 1.2-.6 2-1 .5-2.4-1.2-1.1.4-2.4 1.1-3.4l.1.1.1-.1v.3h.2v1c.4.3.7 0 .8-.4.3-2 2-2.4 3.4-3.4 2-1.3 4-2.2 6.3-2.7.8-.1 1.5-.3 2 .3 1.7 1.9 3.5 1.3 5.5.7-.3-.9-.8-1.3-1.7-1.4-1-.2-1.6-.5-1.6-1.8 0-1.2-1.3-1.3-2.1-.9-2 .8-3.8.9-5.6-.2-.7-.5-1.5-.8-2.2-.4-1 .5-2 .3-3-.1-.3-.2-.7-.3-1 .1-.2.5.2.8.5 1 .5.3 1.3.2 1 1-.2.7-.7 1.2-1.3 1.2-1.6 0-2.6 1.6-4.2 1.5-.5 0-.6.5-.8.8-.7 1.4-1.6 2.3-3.8 1.6 1 1 1.8 1.5 1.1 2.6-.6 1-1.3.8-2.2.6-.5-.1-1-.2-1.3.3-.3.5.1.9.5 1.2 1.1.9 1.2 1.7 0 2.6-1.3 1-.8 2.6-1.3 3.8-1.3 2.5-.7 5.4-1.8 8-.3.7 0 1.7.8 2.1 1 .4 1.6-.1 2-.9l2-3.9-.3-.4.2.5c1.4-.6.8-2 1.2-3 .3-.8.3-1.8 1-2.5 0 3.5-1.2 7-.8 10.6-1-1-.1-2.2-1.1-3.5a16 16 0 0 0-.1 7.2c.1-1.3-1-2.3-.9-3.6 0-.3-.2-.6-.5-.6-.4 0-.6.3-.8.6-.8 1-.4 2.1-.1 3.2 0-1.1.8-2.9-1.1-3-2-.1-1.5 1.8-1.5 3 0 1.7.3 3.4 1 5.1 1 2 1.4 4.2 1.3 6.4-1.7-.3-1.9-2.8-4-2.7-1.4 0-3 .1-3.8.7-.7.5-1 2.4-.6 3.6l2.3 6.7a6 6 0 0 0 2.3 3 64 64 0 0 1 8.9 8c3.6 3.7 7.8 6.8 11 11 2.2 3 4.2 6.2 5.9 9.5 1.5 3 3.4 5.6 3.9 9v.8c-.8.5-1-.7-1.8-.6-.7 1 .7 2 .1 3.5-1.2-3-2.6-5.5-4.3-7.7-1-1.4-2.3-2.4-3.8-3.3-1.4-.7-2.4-2.1-3.9-2.9a18 18 0 0 0-5-1.5c-1.4-.2-1.7.4-1.5 1.7.5 2 2.2 3.3 3.5 4.7.6.6 1 1.2 1 2.2-1.4-.2-2-1.6-2.9-2.3a33.4 33.4 0 0 0-11.8-5c-1.5-.3-3.2.2-4.6 1.3-.7.6-1 1.3-1 2.3.3 2 .8 3.9 2.5 5.3.6.5 1.7 1.3.3 2.4-.5.4 0 1 .5 1 3.2.3 4 3.1 5.6 5.1-1.4-.2-2.4-1.2-3.3-2-.8-.7-1.4-.4-2 0-1 .5.2.8.2 1.2 0 1.5.6 2.4 1.8 3.2.6.4.3 1-.4 1.1-.5.2-1 .1-1.4.2-.2.7.3 1 .7 1.1 1.3.5 3.2.3 2.7 2.6l.3.3c2.3.2 2.6 3 4.3 3.6 3.3 1.5 6.2 4 10 4.5h.8c1 2.5 4 2.6 5.3 4.8 1.3 2.4 3.7 3.9 5 6.3a84 84 0 0 1 5.8 14.2c1.6 5.2 1.6 10.5 1.8 16a64 64 0 0 1-14 43.3c2.2-5 5.6-9.3 7.2-14.5-1.8 1.6-2.5 4-4.3 5.7 3-6.9 7.3-13.2 8.1-20.8-1 1.2-.7 3.1-2.4 4 2.6-4 1.5-8.7 2.6-13 0-.4-.2-1 .5-1 .2 0 .3.5.4.6 1-2-.4-3.8-.3-5.7a37 37 0 0 0-2.9-19.6c-.3 2.2 1 4 .4 6.4-.4-1.6-.8-3-1-4.4a32 32 0 0 0-2.9-9.7c-.7-1.4-2.6-1.8-3.1-3.5-.1-.3-.5-.3-.7 0-.3.2-.2.5 0 .9.6 1.6 1.2 3.2 1.5 5 .6 3.8 1.6 7.5 2.1 11.3a66 66 0 0 1-.5 17.5c-.6 4.3-2.2 8.4-3.8 12.5-1.8 4.5-3.6 9-6 13.2-1.6 3-3.6 5.7-6.1 8-1.4 1.4-2.6 3-4 4.3-1.3 1.3-3.3 2-3.5 4.4-1-.7-1.4.1-2.2.5-3.5 1.6-6.7 3.9-10.4 5-5.3 1.6-11 2-16.4 1.1-2.8-.4-5.7-1-8.4-1.6-3-.8-6-1.7-8.6-3.7-.7-.5-1.5-1.2-2.6-.8 7 7.6 16.6 7.7 26 8.3-3.2.6-6.3 1.1-9.5.5-6-1.3-11.9-3.1-16.9-7l-2.3-2c-.4-.3-.9-1-1.4-.4-.6.5 0 1 .4 1.4 1.9 2.2 4.2 4 6.5 5.8a21 21 0 0 1-8.8-7.3l-.4-.5c-1-1-2.5-2-3.5-1.2-1.3 1 0 2.3.7 3.4 6 9.2 15.3 12 25.3 13.5 5.8 1 11.6 0 17.5-.2-.7.9-1.7.8-2.4.9-3.9.4-7.7.8-11.6.2-2.9-.5-6-.1-8.7-1-4.9-1.5-10-2.9-14-6.1-3-2.5-6.3-5.1-7.5-9.3a7.3 7.3 0 0 0-4.6-4.8c-.5.7 0 1.3.2 2.1-2-2.6-3.5-5.3-4.4-8.2-1.4-4-.7-8.3 1.6-12 .5-.7 1-1.5 1.6-2.1.3-.4 1-.7.7-1.3-.2-.8-1 0-1.4-.5 2.5-2.6 8-3.9 11.1-2.5.3 0 .5.2.8.4 5.4 2.4 6.7 4.6 6 10.5-.2 2.4-1.4 4-3.4 4.6-.8.3-1.6.4-2-.5-.2-1 .9-.7 1.3-.9 3-1.5 3.4-7.5.6-9.4-3.1-2.2-6.7-3.1-10.2-1.2-3.7 2-5.5 5.6-5.6 9.8-.2 4.8 2.3 8.2 6.2 10.7a14.5 14.5 0 0 0 15.3.7c3.4-1.6 6.2-4.2 8-7.5 1.1-2 2.7-3.8 3-6.2.3-2.8 1.7-5.6.2-8.5-.4-.7-.2-1.7 1-1 1 .5 2.3.7 3 1.7.4.5 1 1 2 .8-2-2.2-4.4-3.7-6.2-6-.5 0-.3.7-.6.8-2.4-.6-3-3-4.2-4.7-1.4-2-3.1-3.4-4.8-5-3-2.8-6.7-1.7-10-2.7-5-1.6-9.9-.2-14.7 1.2-3.2 1-5.5 3.5-7.6 6a31 31 0 0 0-7.2 13.2c-1 4-2.6 8-2 12 .5 4.2 1.1 8.5 2.8 12.7 1.4 3.4 3.2 6.6 5.2 9.7 1.6 2.6 3.1 5.2 5.7 7l2.8 2.3c4.7 4 10.1 6.4 15.7 8.7.4.2 1 .1 1 .8-.1.7 2.6 1.3 1.5 0 4 1 8 1.7 12.1 2.4 1.5.3 3 .3 4.5.3h7.4c1.8 0 3-.8 3.1-2.7 0-.5 0-1.1.6-1.2 1 0 1.4 1 2 1.4.4.3.6.7 0 1.2" fill="#DFD4BF"/><path d="M108.1 216.2c3-3.7 4.6-8 6.2-12.4a29.5 29.5 0 0 0 1-19.3c-.3-1 .2-2-.4-2.8 2.1 3 3.8 7.4 1.3 22.5a36 36 0 0 0 2.6-16.2 44 44 0 0 0-4.2-15.6c1.7.3 1.9 1.7 2.3 2.7a34.4 34.4 0 0 1 .7 28.1 47.5 47.5 0 0 1-31.9 30.7c-5.6 1.5-11.3 1.8-16.5-1.6-1.3-.8-2.9-1.2-4-2.3-.8-.7-3.4 0-4 .8-.3.5 0 .7.3 1a19 19 0 0 0 9.5 4.9c9.9 2 19.2.1 27.5-5.4 11-6.8 19-17.4 22.7-29.7 1.6-4.8 2.1-9.8 1.5-14.8a48.5 48.5 0 0 0-4-15.7 21 21 0 0 0-9.5-8.7c-1.3-.7-1.6.6-1.4 1.6.6 2.3 1.6 4.4 2.8 6.4.5.6 1 1.2 1 2.8-1.1-1.7-2.4-2.9-2.7-4.3-.9-4.1-4.2-6-7-8.4-1.4-1.3-3.2-2.3-4.5-4-1-1.4-2.9-.6-4.4-.8-1.1-.2-2.4-.1-3.6-.4l-1-.2c-2 .3-4 1-6-1.3.4 3.1-3 4.8-6 3.7.1 2.5-2.4 2.7-3.4 4.3-.7 1-1.8 1.7-2.8 2.4-.3.3-.8.6-.6 1 .6 1.4.2 2-1.3 2.2-.3 0-.5.3-.4.6.1.4.6.5.8.4 1.4-1 2.7-.9 3.9.3.2.3.8.3 1.1 0 .5-.7-.1-.8-.4-1.2-1.9-1.9-1.6-3 .6-4.6 2.2-1.6 4.5-3 7-3.6 5.7-.8 11.5-.3 16.9 1.6 1.4.5 1.5.5 2.6 2-4.5-1.2-8.7-3-13.2-2.5l4.7 1.6c7 2.6 11.8 7.7 15.3 14.3 1.6 3 2.6 6 4 9.1.7 1.5.5 3.1.5 4.7l-.2 10.5c0 .4-.1.8-.4 1-2 2-1.2 5-2.1 7.2-1.3 2.8-2 5.9-4 8.3-2.7 3-5.3 6-8.5 8.6-1 .8-1.9 1.7-3.2 2-1.6.2-2.2 2-3.8 2.3-.3 0-.5.5-.3.9.2.3.7.2 1 0 2.3-1.4 5-2.1 7.2-4 1.5-1.3 3.4-2.3 4.9-3.6 1.8-1.7 3.8-3.3 4.5-5.9v-.3c0-.4 0-1 .3-1.3 2.8-3.4 4-7.5 5.3-10.8-1 3-2.3 6.6-4.5 9.8-.3.4-.5.8 0 1.3h.2v.1Z" fill="#DFD4BF"/><path d="M68.6 230c-.5-.8 0-2.3-1.4-2.4-.4 0-1.1.4-1 1 .1 1.3 1.3 1.3 2.4 1.4Zm38.2-12.6c.4-.4 1-.6 1.3-1.2-1.2-.5-1.7-.1-1.2 1.2h-.1ZM68 4.6l-.1.2v-.1l.1-.1Z" fill="#DFD4BF"/><path d="M52.8 9.8c-4.2.4-8 0-11.8 1 .8 1 1.8.3 2.7.7-2 1.4-4.3 1.4-6.5 2-3.5 1-6.8 2.4-9.4 4.9-3.1 3-6.2 6-7.5 10.3 2-3.2 4.4-6 7.1-8.6 4-3.9 9.2-5.2 14.2-6.7 4-1.2 8.3-1 12.4-1.2a13 13 0 0 1 6.4 1.2c1.5.9 3.3 0 5.3.5-15-11-40.7-8.1-51.8 17.6 1-2.2 2.6-4 3.7-6 3.4-5.3 8.1-9.7 13.7-12.8 6.5-4 13.6-5 21.5-3v.1Z" fill="#181818"/><path d="M17.4 18.9a38.5 38.5 0 0 1 22-12.8c4.4-.7 9-.5 13.4.5 2.8.6 5.4 1.6 8 2.5 2.1.8 4 2.6 5.9 4 .2.1.4.4.1.6-1 1 0 1.4.5 1.3 2.5 0 3.6 2 5 3.3l1.7 1.8c.4.3.8 1 1.3.4.5-.5-.2-.9-.5-1.3-2.5-2.7-5-5.2-7.9-7.4A25 25 0 0 0 55.1 6c-5.4-1-10.8-2-16.4-1a30 30 0 0 0-8.4 3 36 36 0 0 0-11.6 8.3c-.5.5-1.2 1-1.3 2.5v.1Z" fill="#181818"/><path d="M63.4 19.4c4.9 3 8.5 7.6 10.1 13.1 0-4-6-11.7-10.1-13v-.1Zm-27.8.1c4.6-1.7 9.1-3.8 14.7-3.5-2.9-1.7-12.3.7-14.7 3.5Zm61.9 65.2 5.8 3.8c-2-1.2-3.2-3.6-5.8-3.8ZM74 34.8c-.4 1.3-.5 2.7-1 4 1.3-1 .9-2.6 1-4ZM38.9 11.3a9 9 0 0 0-5.2 1.7c2.2-.3 3.7-.9 5.2-1.7Zm52.7 70.3c-1-1-2.4-1.4-3.9-1.6a5.2 5.2 0 0 0 4 1.6h-.1ZM68.7 42.5c1.4-.5 2.8-.7 3.4-2.9L68.4 42l.3.5Zm10-18.1c0-1-.8-1.5-1.7-2.3-.3 1.5.4 2.1 1.2 2.7.4.1.5 0 .5-.4ZM211.8 303l-.3.5c0 .2 0 .5.2.6.4.1.4-.2.4-.5l-.3-.6ZM97.5 84.7l-.6-.6.6.6Zm18.3 23.5c0 .8.6 1.1 1.3 1.2l.4-.4-1.4-1.2c-.3 0-.4 0-.3.4Z" fill="#181818"/><path d="M78.2 24.8c.2.5.3 1 .8 1 .1 0 .4-.1.4-.3 0-.5-.3-.8-.8-1l-.4.3ZM95 83.2h-.3l.3.2v-.2Zm20.6 24.4c0-.3 0-.5-.4-.6l-.2.2c0 .3.2.5.5.5v-.1h.1ZM62.1 48.2c.4.2.5 0 .5-.2l-.3-.4-.4.2.2.4Zm14.4-26.7-.4.1c-.1.2 0 .4.2.4h.3c.2-.3 0-.4-.1-.5Zm39 86.2.3.5.4-.3-.7-.2ZM139.7 219c-1.6 1.8-1.9 4.1-3.2 6.1-2.2 3.4-5 6.3-7.3 9.6a52 52 0 0 1-9.4 10.2c-2.7 2.2-5.8 3.6-8.7 5.3-11.5 7-25 10-38.4 8.7l-10.5-1.5c-2.6-.5-5-1.6-7.5-2.6A39.2 39.2 0 0 1 36 239.9c-6-9.3-7.6-19.2-4.4-29.9a24 24 0 0 1 9.3-12.5c3.4-2.5 7.7-2.4 11.9-2.4 3 0 5.7 1 8.4 2.3a16 16 0 0 0-7-3.2c-6.3-1-12 .4-17.1 4.6-4.2 3.3-5.3 7.8-6.8 12.2-2 6.7-1.9 13.9.6 20.4 1 3.5 2.6 6.8 4.8 9.7a47.6 47.6 0 0 0 16.8 13.4c11.9 5.4 25.2 7 38 4.3 1-.3 2-.4 3.2-.6 6-1.1 11.2-3.9 16.6-6.6 6.2-3 11.8-7.2 16.4-12.4 2.9-3.4 5.3-7.2 8-10.8 1.7-2.2 2.7-4.7 4.2-7 .4-.7.9-1.5.8-2.5v.1Z" fill="#181818"/><path d="M42.8 237.2c1.3 3 3.9 4.9 6.4 6.7a56.3 56.3 0 0 0 16 8.1 37 37 0 0 0 22.3 1.1c3.4-1 7-1.4 10.2-2.9 3.4-1.6 7-2.4 10.1-4.4 2.6-1.5 5-3.2 7.5-4.9 3.6-2.7 6.6-6 8.7-10-2.2 2-4.2 4.2-6.2 6.4a24 24 0 0 1-5 4.3c-2.6 1.6-5 3.7-7.9 5-6.5 3.2-13.5 5-20.5 6.5a38 38 0 0 1-25-4.2 51 51 0 0 1-16.1-11.5l-.6-.2h.1Zm19.9-34.5a9.3 9.3 0 0 0-6.4-5c-5.3-1.4-10.7-1.5-15.4 2.1-3 2.4-5.7 5.1-6.7 9-.6 2.3-2 4.4-2 6.9.2 4.2 0 8.5 1.3 12.6.6 0 .7-.3.6-.6-.4-2.7-.2-5.4-.5-8a19 19 0 0 1 4.5-15.4c4.3-5 9.4-7.1 15.8-6.2 3.4.3 6.6 2 8.8 4.6Z" fill="#181818"/><path d="M69.8 256.8c11 1.3 22.2 0 32.6-4 9.7-3.8 18-10.6 23.6-19.4-1.3.6-1.3.6-2 1.5a50.4 50.4 0 0 1-30.2 19.3c-8 1.4-16 2.3-24 2.5v.1Zm67-70.2c-1 20.2-11.6 35.4-25.4 48.6 3.2-1.2 15.3-16.7 17.9-21.6 4.4-8.5 7-17.4 7.5-27ZM52.1 213c-2 1.4-2.8 3.5-2.2 5.5.7 2.1 2.7 3.8 4.8 3.4 1.5-.3 2.4 1 3.9.8 3.2-.5 5-2.7 7-4.8.4-.5.8-1 .5-1.7-.2-.3-1.1.5-1.2-.5-.5.3-.9.9-1 1.4-.2 3.1-2.7 3.6-4.9 4.3-1.3.5-2.7-.7-3.7-.5-1.6.2-2-.7-3-1.5-1.4-1.5-1.8-3-.5-4.7.2-.4.7-.9.3-1.7Zm-10.9 28.6c6.5 8.3 16 13.7 26.5 15a49.5 49.5 0 0 1-26.5-15ZM144 128c-.3.5.6 1.5-.8 1.4-.5 0-.5.6-.3 1 2.5 4.8 3.6 10.1 5.4 15.2.2.7.2 1.5.5 2.3 0-2.3-.5-4.5-1-6.6-.8-2.7-2-5.3-2.5-8-.3-1.8 0-3.7-1.3-5.2v-.1Zm8.8 61.7a55 55 0 0 0 0-22c.5 7.3.7 14.7 0 22ZM40.7 205a21.6 21.6 0 0 0-4.2 19.2c-.6-6.9.3-13.3 4.2-19.1v-.1Zm104.4-44.7c1.3 5.3 3.2 10.4 3.4 16-.5-5.5-1.2-11-3.4-16Z" fill="#181818"/><path d="M105 243.4a72 72 0 0 0 10.5-7.4c.3-.3.7-.6.3-1-.3-.3-.7 0-.9.2-2.7 3.1-6.7 4.7-10 8.2h.1Zm37.6-120.2a38.8 38.8 0 0 0-5-12.1c.7 4.4 3.7 8 5 12v.1Zm-49.8 121-10.9 1c3.6.7 8 .3 11-1h-.1Zm57.5-98.2c-.3-4.5-1.3-8.6-2.7-12.5-.1-.4-.3-.9-.8-.6-.5.2-1 .5-.5 1 2.6 3.4 2.4 7.6 3.5 11.4 0 .2.2.3.5.7Zm-12.7-5.4a25 25 0 0 0-5.8-5.4c1.7 2.2 3.8 3.8 5.8 5.4ZM64 204.4c1.4 3 2.4 5.9 1.7 8.3-1-2.1 1.1-5.6-1.8-8.3h.1Zm69-96c.3 2.6 2.1 4.4 3.4 6.5-.6-2.4-1.8-4.5-3.3-6.5h-.1Zm17.2 65.6c.7 3.3.2 6.7.5 10v-10h-.5Zm-30 48.3c-1.5.2-2.2 1.4-3 2.4-1.3 1.4-2.8 2.5-3.6 4.3 1.9-1.6 3.6-3.3 5-5.3.4-.5.8-1.2 1.6-1.4l-.1-.3v.3h.1Zm30.3-74.8c0 2.5.7 5 .5 7.7a19 19 0 0 0-.5-7.7Zm-19.9 53.4c1.8-2 1.4-4.6 2-7-1 2.3-1 4.8-2.1 7l.2.3-.1-.3Zm17.5-16.1c.7 2.2-1 4.3-.3 6.8 1.3-2.4-.4-4.6.3-6.8Zm-21.7 26.4a13 13 0 0 0 2.8-5.6l-2.8 5.6Zm-77.7 24.4-3-3.8c.5 1.8 1.7 2.8 3 3.8Zm85-50.9-.7 5.3c1.1-2 .9-3.7 1.2-5.2h-.5v-.1ZM113.6 229a8.6 8.6 0 0 0-3 2.7c1.4-.5 2.1-1.7 3-2.7Zm18.5-14.6c1.3-.9 1.3-2 1.6-3-1 .7-1.3 1.6-1.6 3Zm19.6-52.8-.2 2.6c1.2-1 .2-1.9.2-2.6ZM137.2 182c.3-1.3.1-2.3 0-3.9a3.7 3.7 0 0 0 0 3.8v.1ZM96 239.4c1.2.4 1.9 0 2.5-.7-.8 0-1.6 0-2.5.7Zm41.3-112.3c-.3.7 0 1.1.5 1.5.3-.7 0-1-.5-1.5Zm12.2 27.1c.3-.7.3-1.2 0-1.6l-.6.1c-.4.6-.1 1.1.6 1.5Zm-80.9 56.6v-1c-.7.3-.2.7 0 1Zm80.9-60.2c0-.1-.2-.5-.4-.5-.3 0-.3.3-.3.6l.2.5c.4 0 .5-.2.5-.6Zm-29.3 71.7c0-.7.5-1.1.6-1.7-.7.4-.5 1-.6 1.7Zm16.5-38.7c0 .2.1.4.3.5.2.1.4 0 .4-.3l-.2-.5c-.2 0-.3.2-.5.3Zm-42.8 56.2c-.4 0-.6.2-.5.5l.5.2c.2 0 .5-.2.4-.5l-.4-.2Zm42.9-64.9c-.7.6-.4 1 0 1.7.5-.7.4-1.2 0-1.7Zm-14.7 44.4.1-.3.2.1-.2.2-.1-.2v.2Zm-21.5 19-.4-.2.4.2Z" fill="#181818"/><path d="M130.5 201h.3l-.3.1v-.2.1Zm-87.8 36.2-.1-.1h.1v.1Zm79.5-17.9h-.1.1Zm-73.5 16.3v.1c-.2-.1-.2-.1 0 0v-.1Zm58.2-18.2 1.3-1.2c.1-.8.5-1.6 1-2.4a34 34 0 0 0 4.3-11c0-.5.2-1-.3-1.5-.8.1-.6.9-.7 1.4-1.4 4.6-2.7 9.2-6 12.9-.3.4-.4 1-.6 1.5-.2.3-.7.9 0 1.1.5.2.8-.3 1-.8Zm6.7-16.9a26.4 26.4 0 0 0-.6-15.7 59 59 0 0 1 .6 15.7Zm-9.1 18.5.4.5c0-.2.2-.3.3-.4l-.2-.3-.5.2Zm-.4 1.1h.2-.2Z" fill="#181818"/><path d="M55.8 10.3c.4 1 1.2 1 2.4.9-.9-1-1.6-1-2.4-.9Z" fill="#DFD4BF"/></g><defs><clipPath id="a"><path fill="#fff" transform="matrix(-1 0 0 1 213 0)" d="M0 0h213v305H0z"/></clipPath></defs></svg>